<svg width="47" height="40" viewBox="0 0 47 40" xmlns="http://www.w3.org/2000/svg"><title>Shape</title><path d="M45.061 6.984c.504.228.899.507 1.164.648 0 0 .025.054.08.029 0 0 .025.054.08.029.079.029.159.058.21.167C43.97 4.647 41.4 4.39 40.297 4.44c-.05-.109-.13-.138-.18-.247 1.026-.213 2.995-.536 3.713-.275 1.01.322 1.507.818 1.507.818s-1.702-2.514-4.208-2.206c-1.186.156-2.016.08-2.498.04 0 0-.87-1.58-6.09-2.122-5.247-.597-9.65 1.324-10.006 1.556 0 0-4.451 2.671-5.527 6.614-1.076 3.942-1.568 7.149-2.926 8.642-1.303 1.467-1.49 4.333-2.622 5.457-1.078 1.098-1.4 1.116-1.865 2.391 0 0-.328 1.145-.546 2.24-.218 1.094-2.34 2.083-2.855 2.257-.813.247-1.918-.561-1.918-.561-.769-.37-.105-.083-1.142-.46-1.73-.583-2.158 1.337-2.158 1.337l.888-.083s-.682.384-.79.435c-.273.127-.625.225-.784.167 0 0 .271.866 1.084.619.46-.149.678-.25.841-.326l-.602.413s.054-.025.188-.022c.189-.022.432-.069.57-.2l.054-.025c.33-.286.77-.623 1.306-.608.537.014 1.167.514 2.056.43 1.131-.13 1.323-.286 2.47-.953 1.338-.823 1.179-.88 1.705-1.457 0 0 .476-.685.654-1.297-.026-.054.029-.08.003-.134.033-.214.179-.612.56-.79 0 0 .081 1.88 2.126 2.713 0 0 .025.055.08.03.16.057.525.416.357 1.619-.029.08-.003.134-.058.16-.083.104-.56 1.782.27 2.85.83 1.07-.052 1.878-.052 1.878s.21.166.471.442c.025.054.13.137.156.192.728.851 1.659 2.137 1.811 2.463l.025.055.395 1.271c2.107-.453 2.829-1.319 2.829-1.319.063-1.286-.702-1.79-.702-1.79s-.418.526-1.642-.822c0 0-.3-1.779-.227-2.475-.025-.054.058-.16.17-.344.06-.16.197-.29.364-.5 0 0 1.666-1.968 1.836-2.312.447-.605.73-1.134.716-1.59l.523-1.436s1.105-3.029 1.965-4.025c.054-.026.083-.105.138-.13.054-.026.138-.131.192-.157.33-.286.66-.572.965-.913l.414-.391c.138-.13.276-.261.385-.312.192-.156.384-.312.656-.438 1.139-.4 2.917-1.559 5.584-4.788 0 0 1.407-.391 1.72-1 0 0-.47 1.41-.4 1.84 0 0-.037.349-1.042.75 0 0 .11-.05-1.11.32 0 0 .026.054-.003.134l-.381.178.887 1.902c.228.489.405.87.485.898a.383.383 0 0 0 .326-.152l.055-.025s.77-.624 1.19-1.283c.03-.08.138-.13.167-.21.309-.475-.115-.674 1.872-1.667 0 0 .43-2.914.852-3.573 0 0 .562-.924.664-1.7.606.446.896.642 1.055.7 0 0-.054.025-.029.08-.004.133.152.325.152.325.152.326.094.486.01.59 0 0-.054.026-.029.08l-.054.026c-.029.08-.029.08.156.192.504.228.975-.323 1.146-.667.25-.315 1.008.457 1.113.54.105.083.932.293 1.19-.29.257-.584.094-.507.014-.536l-.017-.323c.026-.938.256-3.428.547-4.225.058-.16.12-.453.098-.641.095-.507-.173-1.507-.173-1.507-.025-.055-.05-.109-.022-.189.755-.087 1.324-.286 1.324-.286.03-.08.914-.03 2.371.68z" fill="#fff"/></svg>